<svg xmlns="http://www.w3.org/2000/svg" fill="none" viewBox="0 0 229 229"><g clip-path="url(#a)"><path fill="#7EC7E8" d="M228.135.5H.527v227.607h227.608z"/><path fill="#fff" d="M208.872 145.852c-.267 0-.53.018-.793.04.026-.338.044-.677.044-1.022 0-6.983-5.66-12.643-12.643-12.643-4.485 0-8.421 2.336-10.666 5.857a13 13 0 0 0-1.378-.076c-6.535 0-11.911 4.954-12.58 11.31a9 9 0 0 0-.462-.014c-5.108 0-9.249 4.142-9.249 9.25a9.25 9.25 0 0 0 9.249 9.25 9.2 9.2 0 0 0 4.737-1.316c2.412 1.799 5.759 2.805 9.388 2.565 3.809-.251 7.128-1.824 9.28-4.097a9.2 9.2 0 0 0 6.667 2.847 9.22 9.22 0 0 0 7.26-3.532c.377.047.757.079 1.146.079a9.25 9.25 0 1 0 0-18.499z" opacity=".33"/><path fill="#fff" d="M135.77 58.855a6.342 6.342 0 0 0-7.591-6.218 8.69 8.69 0 0 0-7.255-4.217 8.705 8.705 0 0 0-8.036-5.357c-3.621 0-6.738 2.225-8.043 5.383a8.7 8.7 0 0 0-7.935 7.67 8.69 8.69 0 0 0-4.039 7.34 8.704 8.704 0 0 0 8.705 8.704 8.7 8.7 0 0 0 2.974-.533 6.315 6.315 0 0 0 7.639.739 8.65 8.65 0 0 0 4.929 1.534 8.67 8.67 0 0 0 6.463-2.89 6.342 6.342 0 0 0 8.87-5.815c0-.251-.02-.498-.047-.742a6.34 6.34 0 0 0 3.367-5.599z" opacity=".46"/><path fill="#fff" d="M35.801 136.125q-.145.001-.285.014a4.544 4.544 0 0 0-8.363-2.807 4.55 4.55 0 0 0-5.017 4.039 3.325 3.325 0 1 0-.166 6.646c.623 0 1.204-.175 1.702-.473.867.647 2.07 1.008 3.375.922 1.37-.091 2.563-.655 3.337-1.473a3.314 3.314 0 0 0 5.007-.247q.203.028.412.029a3.325 3.325 0 1 0 0-6.65z" opacity=".33"/><path fill="#3C3C3C" d="M65.365 116.542c-26.583 3.804-29.395 3.235-63.975-13.465-36.76-29.156-84.16-75.418-84.16-75.418l57.81-59.709 54.701-38.165L81.462-.533c20.564 31.586 23.088 41.858 25.533 54.306 8.838 47.549-28.16 60.087-41.628 62.768z"/><path fill="#000004" d="M28.926 34.298s-11.612 6.825-11.79 19.003c-.176 12.177 6.37 27.652 28.685 24.294 19.115-3.009 22.658-27.197 14.242-38.013-14.27-18.337-31.137-5.284-31.137-5.284"/><path fill="#877F72" d="M30.572 37.031s-9.995 5.875-10.147 16.357 5.482 23.8 24.689 20.91C61.566 71.71 64.616 50.89 57.372 41.582c-12.282-15.784-26.8-4.549-26.8-4.549"/><path fill="#000004" d="M78.793 41.985s-4.121 2.422-4.184 6.743 2.26 9.813 10.179 8.62c6.783-1.068 8.04-9.651 5.054-13.488-5.064-6.507-11.049-1.876-11.049-1.876z"/><path fill="#877F72" d="M79.791 43.635s-3.144 1.848-3.192 5.145 1.724 7.488 7.766 6.579c5.176-.816 6.136-7.365 3.857-10.294-3.864-4.965-8.432-1.431-8.432-1.431z"/><path fill="#000004" d="M74.063 74.621s-4.122 2.422-4.184 6.743 2.26 9.812 10.178 8.62c6.783-1.068 8.04-9.651 5.054-13.489-5.064-6.507-11.048-1.875-11.048-1.875z"/><path fill="#877F72" d="M75.057 76.27s-3.145 1.85-3.193 5.146c-.048 3.297 1.725 7.488 7.767 6.579 5.176-.816 6.136-7.365 3.857-10.294-3.864-4.965-8.432-1.431-8.432-1.431"/><path fill="#000004" d="M37.828 88.552s-4.121 2.421-4.184 6.743c-.062 4.32 2.26 9.812 10.179 8.62 6.783-1.068 8.04-9.652 5.054-13.489-5.064-6.507-11.049-1.876-11.049-1.876z"/><path fill="#877F72" d="M38.826 90.202s-3.144 1.848-3.192 5.145 1.724 7.488 7.766 6.578c5.176-.815 6.136-7.364 3.857-10.294-3.863-4.965-8.432-1.43-8.432-1.43z"/><path fill="#000100" d="M103.498 28.998c27.153 49.284-5.796 85.25-33.819 90.458C7.167 131.073-33.004 74.749-86.069 31.055l3.336-3.599s41.565 39.073 85.363 73.07c19.908 15.453 37.835 16.699 64.9 14.251 10.217-1.498 48.306-13.455 39.468-61.002-4.037-25.947-43.072-75.914-77.387-123.996l3.25-2.484s60.15 79.18 70.637 101.703"/><path fill="#9E6D4C" d="m190.598 230.82 4.909 62.455-160.906-6.46 8.063-60.907c20.26-109.487 64.935-106.148 75.276-106.685 60.325-1.404 72.658 111.597 72.658 111.597"/><path fill="#000004" d="M108.455 208.921s12.335 5.413 22.308-1.579c9.972-6.991 18.679-21.361 2.884-37.479-13.636-13.728-35.315-2.429-39.15 10.728-6.502 22.307 13.958 28.33 13.958 28.33"/><path fill="#877F72" d="M109.707 205.986s10.616 4.659 19.2-1.359 16.078-18.386 2.483-32.259c-11.737-11.817-30.397-2.091-33.698 9.233-5.596 19.2 12.015 24.384 12.015 24.384z"/><path fill="#000004" d="M85.47 164.002s4.377 1.921 7.916-.56 6.628-7.581 1.023-13.299c-4.839-4.872-12.531-.863-13.892 3.806-2.306 7.915 4.953 10.053 4.953 10.053"/><path fill="#877F72" d="M86.226 162.232s3.34 1.466 6.04-.427c2.7-1.892 5.06-5.784.782-10.148-3.692-3.718-9.563-.658-10.602 2.904-1.76 6.04 3.78 7.671 3.78 7.671"/><path fill="#000004" d="M114.685 148.713s4.377 1.921 7.916-.56 6.628-7.581 1.023-13.299c-4.839-4.872-12.531-.863-13.892 3.806-2.307 7.915 4.953 10.053 4.953 10.053"/><path fill="#877F72" d="M115.437 146.943s3.34 1.466 6.041-.427c2.7-1.892 5.058-5.784.781-10.149-3.692-3.717-9.563-.658-10.602 2.905-1.76 6.04 3.78 7.671 3.78 7.671"/><path fill="#000004" d="M147.2 169.916s4.377 1.921 7.917-.56 6.628-7.581 1.023-13.299c-4.839-4.871-12.532-.863-13.892 3.806-2.307 7.915 4.952 10.053 4.952 10.053"/><path fill="#877F72" d="M147.953 168.145s3.339 1.466 6.04-.427c2.7-1.892 5.059-5.784.781-10.148-3.692-3.718-9.563-.658-10.601 2.904-1.76 6.04 3.78 7.671 3.78 7.671"/><path fill="#060000" d="M195.954 230.998c2.712 37.574 3.445 62.219 3.445 62.219l-3.955-.131-4.846-62.266s-12.333-113.001-72.659-111.597c-10.34.537-55.016-2.802-75.276 106.685l-7.842 60.766-6.06-.202 8.937-60.729s14.26-95.354 66.558-107.855a49.3 49.3 0 0 1 9.793-1.315c6.373-.105 14.188-.469 22.637 2.392 19.331 6.546 48.747 35.446 59.268 112.033"/><path fill="#000" d="M143.389 76.113c-25.12-34.472 31.267-108.591 62.315-141.639l-8.164-6.03C168.482-37.1 113.765 23.865 131.258 69.085c18.977 44.693 62.107 44.051 97.9 34.642 35.793-9.41 71.34-72.701 84.639-103.17-.566-.307-2.493-1.235-5.677-2.493-38.97 72.144-56.168 87.412-68.767 93.906-65.375 26.052-83.036 2.426-95.964-15.859"/><path fill="#EFF2E1" d="M257.362-32.66 307.72-1.85s-36.7 76.306-71.334 96.603c-13.486 7.039-41.298 16.11-72.084 3.702-10.867-5.37-42.973-28.705-26.759-71.207 5.946-14.49 13.043-28.366 24.203-43.547l40.287-51.076z"/><path fill="#000004" d="M220.787 27.276s-6.825-11.613-19.002-11.79c-12.178-.176-27.653 6.37-24.295 28.684 3.009 19.115 27.198 22.66 38.013 14.243 18.338-14.27 5.284-31.137 5.284-31.137"/><path fill="#877F72" d="M218.053 28.922s-5.875-9.995-16.356-10.147-23.801 5.482-20.911 24.689c2.589 16.452 23.409 19.502 32.718 12.258 15.783-12.282 4.548-26.8 4.548-26.8z"/><path fill="#000004" d="M213.101 77.146s-2.421-4.122-6.743-4.184c-4.321-.063-9.812 2.26-8.62 10.179 1.068 6.782 9.652 8.04 13.489 5.053 6.507-5.064 1.875-11.048 1.875-11.048z"/><path fill="#877F72" d="M211.448 78.139s-1.849-3.145-5.146-3.193-7.488 1.725-6.578 7.767c.815 5.176 7.365 6.136 10.294 3.857 4.965-3.864 1.431-8.432 1.431-8.432z"/><path fill="#000004" d="M180.468 72.418s-2.421-4.121-6.742-4.184c-4.322-.062-9.813 2.26-8.621 10.179 1.068 6.783 9.652 8.04 13.489 5.054 6.507-5.064 1.876-11.049 1.876-11.049z"/><path fill="#877F72" d="M178.815 73.41s-1.849-3.144-5.146-3.192-7.487 1.724-6.578 7.766c.815 5.176 7.365 6.136 10.294 3.857 4.965-3.863 1.431-8.432 1.431-8.432z"/><path fill="#000004" d="M166.535 36.186s-2.422-4.122-6.743-4.184-9.813 2.26-8.62 10.179c1.068 6.783 9.651 8.04 13.488 5.053 6.507-5.064 1.876-11.048 1.876-11.048z"/><path fill="#877F72" d="M164.885 37.18s-1.848-3.145-5.145-3.193-7.488 1.725-6.579 7.767c.816 5.176 7.365 6.136 10.294 3.857 4.965-3.864 1.431-8.432 1.431-8.432z"/></g><rect width="224.441" height="224.437" x="2.105" y="2.086" stroke="#000" stroke-width="3.171" rx="22.449"/><defs><clipPath id="a"><rect width="227.612" height="227.608" x=".52" y=".5" fill="#fff" rx="24.034"/></clipPath></defs></svg>
