<svg xmlns="http://www.w3.org/2000/svg" fill="none" viewBox="0 0 41 41"><g clip-path="url(#a)"><g clip-path="url(#b)"><path fill="#74BCE2" d="M20.438 40.5c11.045 0 20-8.954 20-20s-8.955-20-20-20-20 8.954-20 20 8.954 20 20 20"/><path fill="#EAEADF" d="M14.872 10.994h11.135c2.144 0 3.884 1.333 3.884 2.976v15.49c0 1.643-1.74 2.977-3.884 2.977H14.872c-2.144 0-3.884-1.334-3.884-2.976V13.969c0-1.642 1.74-2.975 3.884-2.975"/><path fill="#000" stroke="#000" stroke-width=".6" d="M26.005 32.499H14.871c-2.187 0-3.965-1.364-3.965-3.04V13.97c0-1.674 1.78-3.037 3.965-3.037h11.134c2.187 0 3.966 1.363 3.966 3.038v15.491c0 1.675-1.78 3.039-3.966 3.039zM14.871 11.057c-2.095 0-3.8 1.307-3.8 2.912v15.49c0 1.607 1.705 2.914 3.8 2.914h11.134c2.097 0 3.802-1.307 3.802-2.913V13.97c0-1.607-1.705-2.914-3.802-2.914z"/><path fill="#EA9B1C" d="M11.67 15.462v13.742c0 1.457.963 2.639 3.603 2.639h10.333c2.315.098 3.605-1.186 3.605-2.645V15.462c0-.129-.016-.255-.04-.38l-1.972.323a14.8 14.8 0 0 1-4.757-.003l-3.208-.53a19.4 19.4 0 0 0-6.338.01l-1.187.2q-.04.186-.041.378z"/><path fill="#724D35" d="M25.605 30.753H15.27a3.603 3.603 0 0 1-3.603-3.605v1.969c0 2.076 1.614 2.726 3.603 2.726h10.334c1.991 0 3.605-.792 3.605-2.782v-1.913a3.605 3.605 0 0 1-3.605 3.605" opacity=".25" style="mix-blend-mode:multiply"/><path fill="#F9BB62" d="M13.719 17.341a.323.323 0 1 1 .646-.001.323.323 0 0 1-.646.001m4.141 3.302a1.1 1.1 0 1 1-2.2 0 1.1 1.1 0 0 1 2.2 0m-2.697 5.113a.796.796 0 1 1-1.592.001.796.796 0 0 1 1.592 0m8.135 1.23a.583.583 0 1 1-1.165 0 .583.583 0 0 1 1.165 0m.774-8.74a.777.777 0 1 1-1.554 0 .777.777 0 0 1 1.554 0m2.075 2.719a.777.777 0 1 1-1.554 0 .777.777 0 0 1 1.554 0m1.293 8.028a1.293 1.293 0 1 1-2.589 0 1.296 1.296 0 0 1 2.589 0"/><path fill="#fff" d="M24.872 12.065h-8.953a.583.583 0 0 0 0 1.165h8.953a.583.583 0 0 0 0-1.165"/><path fill="#724D35" d="M27.349 8.5H13.527c-.473 0-.855.235-.855.525v1.473c0 .291.382.526.855.526h13.82c.473 0 .856-.235.856-.526V9.025c0-.29-.383-.525-.856-.525z"/><path fill="#724D35" d="M27.349 9.764H13.527c-.473 0-.855.234-.855.525v.21c0 .29.382.526.855.526h13.82c.473 0 .856-.235.856-.526v-.21c0-.29-.383-.525-.856-.525z" opacity=".25" style="mix-blend-mode:multiply"/></g></g><defs><clipPath id="a"><rect width="40" height="40" x=".438" y=".5" fill="#fff" rx="20"/></clipPath><clipPath id="b"><path fill="#fff" d="M.438.5h40v40h-40z"/></clipPath></defs></svg>
